<svg id="Layer_1" data-name="Layer 1" xmlns="http://www.w3.org/2000/svg" viewBox="0 0 200 40"><defs><style>.cls-1{fill:#fff;}</style></defs><title>Untitled-1</title><path class="cls-1" d="M22,7a10.34,10.34,0,0,0-3.1-1.54,12,12,0,0,0-3.56-.55,16,16,0,0,0-5,.71A11.09,11.09,0,0,0,6.74,7.45,7.43,7.43,0,0,0,4.61,10a6.46,6.46,0,0,0-.71,2.9,5.71,5.71,0,0,0,.67,2.8,8.37,8.37,0,0,0,1.78,2.23,15.68,15.68,0,0,0,2.52,1.83c.94.55,1.91,1.08,2.89,1.58l2.88,1.49a17.35,17.35,0,0,1,2.53,1.56A7.8,7.8,0,0,1,19,26.21a3.81,3.81,0,0,1,.68,2.22,3.94,3.94,0,0,1-.76,2.39,6.48,6.48,0,0,1-1.95,1.75,10.06,10.06,0,0,1-2.73,1.09,13.24,13.24,0,0,1-3,.36,10.74,10.74,0,0,1-2.49-.28,7,7,0,0,1-2.13-.85A4.62,4.62,0,0,1,5,31.42a3.86,3.86,0,0,1-.56-2.12,6.58,6.58,0,0,1,.07-1c0-.32.09-.6.14-.87s.1-.5.14-.72a3.79,3.79,0,0,0,.07-.63,1.19,1.19,0,0,0-.38-1,1.44,1.44,0,0,0-.93-.3,2.72,2.72,0,0,0-1.18.29,3.68,3.68,0,0,0-1.16.85,4.65,4.65,0,0,0-.89,1.42,5,5,0,0,0-.36,2A7.16,7.16,0,0,0,1,33.1a8.52,8.52,0,0,0,2.58,2.7,12,12,0,0,0,3.67,1.61,17.24,17.24,0,0,0,4.25.53,17.86,17.86,0,0,0,3.1-.27,17.15,17.15,0,0,0,2.94-.79,13.35,13.35,0,0,0,2.61-1.33,10.12,10.12,0,0,0,2.09-1.86,8.26,8.26,0,0,0,1.39-2.37,7.94,7.94,0,0,0,.5-2.89,6.8,6.8,0,0,0-.67-3.08,8.86,8.86,0,0,0-1.78-2.41A13.91,13.91,0,0,0,19.13,21c-.94-.57-1.9-1.1-2.89-1.6L13.36,18a19.71,19.71,0,0,1-2.52-1.47,7.67,7.67,0,0,1-1.79-1.69,3.37,3.37,0,0,1-.67-2.06,2.86,2.86,0,0,1,.37-1.38,3.94,3.94,0,0,1,1.16-1.27,6.61,6.61,0,0,1,1.94-.93,9.33,9.33,0,0,1,2.74-.36,14,14,0,0,1,2.61.23,7.25,7.25,0,0,1,2.05.68,3.81,3.81,0,0,1,1.33,1.13,2.62,2.62,0,0,1,.48,1.56,4,4,0,0,1-.23,1.25,7.26,7.26,0,0,1-.7,1.44,6.63,6.63,0,0,0-.73,1.42,3.46,3.46,0,0,0-.21,1.08,1.18,1.18,0,0,0,.33.91,1.2,1.2,0,0,0,.86.31,3.05,3.05,0,0,0,1.56-.53,5.48,5.48,0,0,0,1.61-1.64,9.29,9.29,0,0,0,1.09-2.19,6.51,6.51,0,0,0,.34-2,5.85,5.85,0,0,0-.83-3.06A8,8,0,0,0,22,7Z"/><path class="cls-1" d="M91.55,29a18.54,18.54,0,0,1-2.08,1.35,14.35,14.35,0,0,1-2.27,1,6.48,6.48,0,0,1-2.21.42,3,3,0,0,1-.62-.07,1.92,1.92,0,0,1-.55-.24A2.55,2.55,0,0,1,83.3,31a5.13,5.13,0,0,1-.52-.77,12.44,12.44,0,0,0,2.83-1.15,10.61,10.61,0,0,0,2.25-1.67,9.51,9.51,0,0,0,1.66-2.26,5.15,5.15,0,0,0,.71-2.38,4.55,4.55,0,0,0-.35-1.8,4,4,0,0,0-1-1.37,4.43,4.43,0,0,0-1.47-.88,5.12,5.12,0,0,0-1.82-.32,5.5,5.5,0,0,0-2.18.42A6.71,6.71,0,0,0,81.67,20a8,8,0,0,0-1.39,1.66,11.39,11.39,0,0,0-1,2c-.26.69-.51,1.48-.76,2.37a1,1,0,0,1,0,.18c-.16.08-.3.17-.48.25a4.27,4.27,0,0,1-1.63.35,1.4,1.4,0,0,1-.53-.11,1.19,1.19,0,0,1-.46-.36,2,2,0,0,1-.32-.67A3.89,3.89,0,0,1,75,24.56a5.88,5.88,0,0,1,.09-.92c0-.37.15-.84.28-1.41s.22-1,.28-1.39a6.43,6.43,0,0,0,.08-.83,1.58,1.58,0,0,0-.14-.69,1.64,1.64,0,0,0-.37-.52,1.77,1.77,0,0,0-.55-.32,1.81,1.81,0,0,0-.65-.11,2.92,2.92,0,0,0-1.7.51A6.29,6.29,0,0,0,71,20.15,10.15,10.15,0,0,0,69.87,22c-.35.76-.64,1.37-.88,1.84H68.8a19.06,19.06,0,0,1,0-2.08c.06-.8.09-1.41.09-1.84s0-.65,0-.86a.88.88,0,0,0-.14-.48.6.6,0,0,0-.38-.21,4.45,4.45,0,0,0-.71,0,4.22,4.22,0,0,0-.67,0,1.06,1.06,0,0,0-.46.18,1.09,1.09,0,0,0-.32.35,3.72,3.72,0,0,0-.28.62A13.94,13.94,0,0,0,65.49,21c-.15.59-.33,1.33-.54,2.23s-.38,1.73-.51,2.52-.21,1.32-.3,2c-.52.69-1,1.32-1.55,1.88q-.37.4-.78.78a9.48,9.48,0,0,1-.82.66,4.71,4.71,0,0,1-.82.48,1.84,1.84,0,0,1-.77.18.6.6,0,0,1-.63-.45A4.13,4.13,0,0,1,58.62,30a11,11,0,0,1,.29-2.31l.51-2.44c.15-.71.28-1.41.4-2.09A10.76,10.76,0,0,0,60,21.34a3.24,3.24,0,0,0-.1-.87,1,1,0,0,0-.27-.49.77.77,0,0,0-.41-.23,1.88,1.88,0,0,0-.49-.06h-.79a3.4,3.4,0,0,1-.45,0,1.3,1.3,0,0,1-.43-.11.8.8,0,0,1-.35-.28l-.29-.4a1.45,1.45,0,0,0-.38-.36,1,1,0,0,0-.63-.16,5.94,5.94,0,0,0-2.39.51,9.34,9.34,0,0,0-2.22,1.39,11.84,11.84,0,0,0-1.95,2,16,16,0,0,0-1.66,2.77,17.17,17.17,0,0,0-1.15,3c0,.19-.07.38-.11.57-.32.35-.65.68-1,1s-.56.51-.86.75a7.09,7.09,0,0,1-.93.65,5.82,5.82,0,0,1-.94.46,2.73,2.73,0,0,1-.89.17.62.62,0,0,1-.55-.42,2.64,2.64,0,0,1-.21-1.14,9.37,9.37,0,0,1,.33-2.5,12.29,12.29,0,0,1,1.25-2.83A13.57,13.57,0,0,0,43.42,22a8.46,8.46,0,0,0,.33-2.36,2.56,2.56,0,0,0-.16-1A1.52,1.52,0,0,0,43.2,18a1.31,1.31,0,0,0-.5-.3,1.78,1.78,0,0,0-.47-.08,3.21,3.21,0,0,0-1.79.64A18.47,18.47,0,0,0,38,20.36a28.36,28.36,0,0,0-2.39,2.57C35,23.68,34.47,24.37,34,25l-.35-.25L35,22.19q.78-1.47,1.59-3.12c.53-1.1,1.06-2.24,1.57-3.41s1-2.33,1.37-3.47a29.63,29.63,0,0,0,1-3.31A12.64,12.64,0,0,0,40.88,6a8.66,8.66,0,0,0-.14-1.6,3.11,3.11,0,0,0-.5-1.22,2.41,2.41,0,0,0-1-.79,3.64,3.64,0,0,0-1.55-.28,5.38,5.38,0,0,0-3.22,1,9.11,9.11,0,0,0-2.44,2.75,18.33,18.33,0,0,0-1.77,4,29.77,29.77,0,0,0-1.1,4.78c-.24,1.67-.49,3.36-.74,5S28.05,23,28,24.58s-.14,3-.16,4.31,0,2.35,0,3.15c0,.46,0,.91,0,1.35A5,5,0,0,0,28,34.56a2,2,0,0,0,.51.83,1.26,1.26,0,0,0,.91.31,1.33,1.33,0,0,0,.72-.18,2,2,0,0,0,.51-.53,5.65,5.65,0,0,0,.48-.93c.17-.39.38-.84.63-1.36a32.81,32.81,0,0,1,1.72-3.06c.64-1,1.26-1.87,1.85-2.66s1.13-1.45,1.6-2a6.05,6.05,0,0,1,1-1l.36.05a2.47,2.47,0,0,0-.23.39c-.12.22-.27.51-.43.86s-.34.76-.53,1.21-.36.9-.51,1.37-.28.94-.38,1.41a6,6,0,0,0-.15,1.26,6.54,6.54,0,0,0,.23,1.7A6,6,0,0,0,37,34a4,4,0,0,0,1.19,1.25,2.94,2.94,0,0,0,1.71.49,4.84,4.84,0,0,0,1.32-.19A9.63,9.63,0,0,0,42.64,35,13.51,13.51,0,0,0,44,34.31c.46-.27.88-.53,1.27-.78L46.1,33A4.86,4.86,0,0,0,47,34.41a4.42,4.42,0,0,0,1.41,1,4.06,4.06,0,0,0,1.64.35,5.17,5.17,0,0,0,1.58-.26,8.66,8.66,0,0,0,1.53-.67,9.41,9.41,0,0,0,2.39-1.89,5.87,5.87,0,0,0,1.34,2.13,2.65,2.65,0,0,0,1.94.74,4.26,4.26,0,0,0,1.92-.48,9.1,9.1,0,0,0,1.8-1.17A12.87,12.87,0,0,0,63.82,33c0,.15,0,.31,0,.45a3.72,3.72,0,0,0,.32,1.17,2,2,0,0,0,.67.83,2,2,0,0,0,1.15.3,1.36,1.36,0,0,0,.58-.11,1.3,1.3,0,0,0,.49-.4,3.76,3.76,0,0,0,.45-.72A11.77,11.77,0,0,0,68,33.34l3.13-8.73h.28c.1.74.22,1.46.37,2.18a6.87,6.87,0,0,0,.7,1.94,3.75,3.75,0,0,0,1.28,1.4,3.71,3.71,0,0,0,2.11.54,5.15,5.15,0,0,0,1.45-.22A10,10,0,0,0,78.35,30a9.4,9.4,0,0,0,.23,1.08,7.22,7.22,0,0,0,1.23,2.37,6.16,6.16,0,0,0,2,1.63,6.44,6.44,0,0,0,2.86.6,9,9,0,0,0,2.07-.24,11.77,11.77,0,0,0,2-.65,14.15,14.15,0,0,0,1.82-.93c.58-.34,1.12-.7,1.62-1.06a23.92,23.92,0,0,0,3.27-2.9l-2.26-2.29A17.34,17.34,0,0,1,91.55,29ZM32.61,20.88c-.37.87-.71,1.67-1,2.4.14-1.33.33-2.68.59-4.06.08-.59.17-1.22.27-1.88s.19-1.34.29-2a20.8,20.8,0,0,1,.4-2.06c.17-.69.36-1.36.55-2a38.57,38.57,0,0,1,2.1-4.32c.6-1,1-1.48,1.35-1.48s.37.44.37,1.33A12.38,12.38,0,0,1,37,9.5,40.56,40.56,0,0,1,35.54,14c-.21.53-.47,1.16-.8,1.92l-1,2.39C33.36,19.17,33,20,32.61,20.88Zm21.92,6.53a9.78,9.78,0,0,1-.3,1.41,9.57,9.57,0,0,1-.63,1.64,5.39,5.39,0,0,1-.91,1.36,1.59,1.59,0,0,1-1.17.56,1.05,1.05,0,0,1-.67-.21,1.63,1.63,0,0,1-.42-.54,2.82,2.82,0,0,1-.22-.76,6.15,6.15,0,0,1-.06-.87,7.47,7.47,0,0,1,.2-1.63,13.87,13.87,0,0,1,.69-2,13,13,0,0,1,1-1.92A9.15,9.15,0,0,1,53.15,23a5.28,5.28,0,0,1,1.29-1,2.94,2.94,0,0,1,1.4-.35Zm27.88-.94a5,5,0,0,1,.33-1.36c.19-.54.36-1,.5-1.37a4,4,0,0,1,.58-1,2.89,2.89,0,0,1,.9-.71A2.86,2.86,0,0,1,86,21.76a.84.84,0,0,1,.71.5A2.5,2.5,0,0,1,87,23.52a2.56,2.56,0,0,1-.61,1.39,6.49,6.49,0,0,1-1.26,1.33,6.24,6.24,0,0,1-1.39.81,3.35,3.35,0,0,1-1.37.32Q82.38,27,82.41,26.47Z"/><path class="cls-1" d="M198.39,25.61a11.68,11.68,0,0,1-1.54.79,4.27,4.27,0,0,1-1.63.35,1.4,1.4,0,0,1-.53-.11,1.09,1.09,0,0,1-.45-.36,1.83,1.83,0,0,1-.33-.67,3.89,3.89,0,0,1-.12-1.05,5.88,5.88,0,0,1,.09-.92c.06-.37.15-.84.28-1.41s.22-1,.28-1.39a5,5,0,0,0,.08-.83,1.58,1.58,0,0,0-.14-.69,1.5,1.5,0,0,0-.37-.52,1.77,1.77,0,0,0-.55-.32,1.81,1.81,0,0,0-.65-.11,2.92,2.92,0,0,0-1.7.51,6.29,6.29,0,0,0-1.31,1.27A10.15,10.15,0,0,0,188.7,22c-.35.76-.64,1.37-.87,1.84h-.2c0-.6,0-1.29.05-2.08s.09-1.41.09-1.84,0-.65,0-.86a1,1,0,0,0-.15-.48.57.57,0,0,0-.38-.21,4.37,4.37,0,0,0-.71,0,4.22,4.22,0,0,0-.67,0,1.11,1.11,0,0,0-.46.18,1.09,1.09,0,0,0-.32.35,3.72,3.72,0,0,0-.28.62,12.12,12.12,0,0,0-.45,1.47c-.16.59-.34,1.33-.55,2.23s-.38,1.73-.51,2.52-.25,1.56-.35,2.31c0,.11,0,.21,0,.31-.24.2-.49.4-.77.6A17.67,17.67,0,0,1,180,30.35a14.25,14.25,0,0,1-2.26,1,6.57,6.57,0,0,1-2.21.42,3,3,0,0,1-.63-.07,1.92,1.92,0,0,1-.55-.24,2.55,2.55,0,0,1-.52-.48,6,6,0,0,1-.52-.77,12.44,12.44,0,0,0,2.83-1.15,10.68,10.68,0,0,0,2.26-1.67,9.48,9.48,0,0,0,1.65-2.26,5,5,0,0,0,.71-2.38,4.55,4.55,0,0,0-.35-1.8,4,4,0,0,0-1-1.37,4.49,4.49,0,0,0-1.46-.88,5.16,5.16,0,0,0-1.82-.32,5.55,5.55,0,0,0-2.19.42A6.87,6.87,0,0,0,172.23,20a7.67,7.67,0,0,0-1.38,1.66,10.77,10.77,0,0,0-1,2c-.26.69-.51,1.48-.76,2.37a9.13,9.13,0,0,0-.36,2.31c0,.33,0,.65.07,1-.32.25-.65.54-1,.76l-.86.59a9.29,9.29,0,0,1-.89.52,4.44,4.44,0,0,1-.83.36,2.24,2.24,0,0,1-.73.14.8.8,0,0,1-.57-.22,1.47,1.47,0,0,1-.36-.57,3.79,3.79,0,0,1-.2-.82,7.54,7.54,0,0,1-.06-1,5.93,5.93,0,0,1,.06-.84c0-.3.08-.58.13-.86s.12-.53.18-.76.12-.44.18-.61c.28-.75.92-2.18,1.94-4.29a34.77,34.77,0,0,0,1.71-4.19c.48-1.41.95-2.83,1.44-4.28a15.59,15.59,0,0,0,.77-4.67c0-.44,0-.87,0-1.28a11.21,11.21,0,0,0-.16-1.94,5.7,5.7,0,0,0-.51-1.65,3.08,3.08,0,0,0-.94-1.13,2.24,2.24,0,0,0-1.4-.43,4,4,0,0,0-2.18.69,8.46,8.46,0,0,0-2,1.91,16,16,0,0,0-1.71,2.91,20.29,20.29,0,0,0-1.28,3.67L158.67,15a19.22,19.22,0,0,0-.48,4,8,8,0,0,0-4.78,2.1,8.45,8.45,0,0,0-1.79,2.16c-.45.8-.85,1.56-1.22,2.28a10.44,10.44,0,0,0-.84,2.26,9.6,9.6,0,0,0-.29,2.3c0,.08,0,.15,0,.23l-.35.22a11.11,11.11,0,0,1-1,.54,6.77,6.77,0,0,1-.93.38,2.39,2.39,0,0,1-.78.14c-.09,0-.19-.06-.3-.2a2.71,2.71,0,0,1-.3-.55,4.41,4.41,0,0,1-.23-.77,3.8,3.8,0,0,1-.1-.89V29c0-.23.08-.48.14-.72s.12-.48.18-.7.12-.42.18-.61a4.68,4.68,0,0,1,.19-.46c.53-1,1.12-2.14,1.76-3.25s1.27-2.23,1.9-3.37,1.23-2.3,1.82-3.46,1.09-2.32,1.53-3.47A24.73,24.73,0,0,0,154,9.49a15.23,15.23,0,0,0,.39-3.37,7.09,7.09,0,0,0-.12-1.31,3.52,3.52,0,0,0-.43-1.15,2.25,2.25,0,0,0-.83-.82,2.64,2.64,0,0,0-1.33-.3,4.28,4.28,0,0,0-2.19.63,8.74,8.74,0,0,0-2.07,1.76,17.34,17.34,0,0,0-1.89,2.62,28.74,28.74,0,0,0-1.67,3.23,32.11,32.11,0,0,0-1.53,4.59c-.51,1.91-.77,2.86-.77,2.86s-.17,1-.5,2.87c-.06.32-.1.61-.15.91a11.09,11.09,0,0,0-1.8-1.59A12,12,0,0,0,136.43,19a9.37,9.37,0,0,0-3.12-.52,8.34,8.34,0,0,0-3.49.71c-.22.1-.4.24-.61.36a.77.77,0,0,0-.26-.31,1.08,1.08,0,0,0-.64-.16h-9.68q.18-2.32.39-3.87c.14-1,.24-1.88.31-2.56s.15-1.26.24-1.74.16-.86.2-1.15.07-.51.09-.64a1.54,1.54,0,0,0,0-.36l1.47-.14,1.28-.1c.44,0,.82,0,1.14,0,1.07,0,2.12,0,3.16,0s2.05.08,3,.16l2.81.22,2.5.19h.29a1.37,1.37,0,0,0,.72-.2,1.61,1.61,0,0,0,.52-.52,3.16,3.16,0,0,0,.29-.68,3,3,0,0,0,.09-.7,1.54,1.54,0,0,0-.34-1,2.19,2.19,0,0,0-1.23-.7l-6.05-.53c-2-.17-3.81-.26-5.58-.26a44.33,44.33,0,0,0-7.31.56A20,20,0,0,0,111,6.92,9.48,9.48,0,0,0,107.34,10,7.57,7.57,0,0,0,106,14.46a2.22,2.22,0,0,0,.06.51.82.82,0,0,0,.32.44,2.11,2.11,0,0,0,.84.31,8.8,8.8,0,0,0,1.56.11,2.67,2.67,0,0,0,1.14-.19,1.63,1.63,0,0,0,.56-.44,1,1,0,0,0,.19-.45c0-.14,0-.23,0-.25a3.36,3.36,0,0,1,.35-1.47,4.88,4.88,0,0,1,1.09-1.45A8.85,8.85,0,0,1,114,10.27a12.94,12.94,0,0,1,2.66-1c-.14.76-.26,1.46-.36,2.12s-.22,1.36-.34,2.11-.26,1.58-.42,2.51-.39,2.08-.67,3.46c-.25,0-.52.07-.81.13l-1,.19-1.31.25-1.73.35a1,1,0,0,0-.53.36,1,1,0,0,0-.16.53.88.88,0,0,0,.29.66,2,2,0,0,0,.69.42,3.43,3.43,0,0,0,.85.22,4.43,4.43,0,0,0,.74.07h2.18c-.21.93-.43,1.85-.63,2.77s-.45,1.8-.71,2.65-.54,1.63-.83,2.36a13.48,13.48,0,0,1-.93,1.9,5,5,0,0,1-1,1.28,1.73,1.73,0,0,1-1.13.46,5.37,5.37,0,0,1-1.44-.19c-.47-.13-.94-.27-1.39-.43L104.7,33a4.54,4.54,0,0,0-1.22-.19,1.29,1.29,0,0,0-.86.3,2.69,2.69,0,0,0-.6.7,3.33,3.33,0,0,0-.35.83,2.67,2.67,0,0,0-.11.69,1.44,1.44,0,0,0,.3.9,2.73,2.73,0,0,0,.77.69,4.59,4.59,0,0,0,1.07.5,8.77,8.77,0,0,0,1.22.32,8.54,8.54,0,0,0,1.17.18c.37,0,.69,0,1,0a9.72,9.72,0,0,0,3.41-.55,8.3,8.3,0,0,0,2.62-1.55,9.39,9.39,0,0,0,2-2.39,17.8,17.8,0,0,0,1.43-3.11,25.51,25.51,0,0,0,1-3.67c.25-1.31.5-2.67.76-4.07l1.25,0,2-.06,2.27-.07,2.15-.08h.51a9.19,9.19,0,0,0-.82,1.73,12.33,12.33,0,0,0-.58,4,11.7,11.7,0,0,0,.33,2.76,7.55,7.55,0,0,0,1,2.45A5.67,5.67,0,0,0,128.09,35a4.93,4.93,0,0,0,2.64.67,5.6,5.6,0,0,0,2-.36,6.84,6.84,0,0,0,1.74-1,7.75,7.75,0,0,0,1.42-1.49A10.34,10.34,0,0,0,137,31a11.26,11.26,0,0,0,.65-2,9.82,9.82,0,0,0,.23-2.08,11.54,11.54,0,0,0-.26-2.54,9.23,9.23,0,0,0-.76-2.14L137,22c.42.28.93.63,1.51,1a14.69,14.69,0,0,1,1.77,1.52l.39.36c0,.26,0,.52,0,.74a21.46,21.46,0,0,0,.34,3.82,15.05,15.05,0,0,0,.94,3.19,7.21,7.21,0,0,0,1.42,2.2,2.44,2.44,0,0,0,1.75.81,6.27,6.27,0,0,0,1.31-.15,12.28,12.28,0,0,0,1.44-.43,15.69,15.69,0,0,0,1.47-.61c.38-.17.74-.35,1.11-.54a4,4,0,0,0,1.38,1.26,3.84,3.84,0,0,0,2,.47,5,5,0,0,0,1.61-.27,8.83,8.83,0,0,0,1.58-.71,11.38,11.38,0,0,0,1.51-1,18.38,18.38,0,0,0,1.37-1.27,5.71,5.71,0,0,0,1,1.72,4.73,4.73,0,0,0,1.16,1,3.73,3.73,0,0,0,1.07.45,3.34,3.34,0,0,0,.75.11,3.44,3.44,0,0,0,.94-.15,8.71,8.71,0,0,0,1.05-.41c.36-.17.73-.36,1.1-.58s.73-.43,1.07-.66c.6-.39,1.21-.87,1.82-1.35a7.58,7.58,0,0,0,.61.94,6.1,6.1,0,0,0,2,1.63,6.4,6.4,0,0,0,2.85.6,9.09,9.09,0,0,0,2.08-.24,12.4,12.4,0,0,0,2-.65,14,14,0,0,0,1.81-.93c.54-.32,1-.65,1.5-1,0,.16,0,.34,0,.5a3.72,3.72,0,0,0,.32,1.17,2,2,0,0,0,.67.83,2,2,0,0,0,1.16.3,1.32,1.32,0,0,0,.57-.11,1.3,1.3,0,0,0,.49-.4,3.76,3.76,0,0,0,.45-.72,11.77,11.77,0,0,0,.46-1.13l3.13-8.73h.28c.1.74.22,1.46.37,2.18a7.19,7.19,0,0,0,.7,1.94,3.84,3.84,0,0,0,1.28,1.4,3.72,3.72,0,0,0,2.12.54,5.08,5.08,0,0,0,1.44-.22,9.44,9.44,0,0,0,1.36-.55,11.34,11.34,0,0,0,1.24-.69l1-.66.26-4.1A13.32,13.32,0,0,1,198.39,25.61ZM134.22,28a9.9,9.9,0,0,1-.68,2.22,5.53,5.53,0,0,1-1,1.52,1.6,1.6,0,0,1-1.15.6,2.25,2.25,0,0,1-1.17-.28,2.33,2.33,0,0,1-.79-.77,3.55,3.55,0,0,1-.44-1.13,6.72,6.72,0,0,1-.14-1.38,11.47,11.47,0,0,1,.28-2.61,9.58,9.58,0,0,1,.77-2.11,5.78,5.78,0,0,1,1.14-1.56,2,2,0,0,1,1.36-.62,1.48,1.48,0,0,1,.93.3,2.2,2.2,0,0,1,.63.8,4.71,4.71,0,0,1,.37,1.2,8.77,8.77,0,0,1,.12,1.5A13.15,13.15,0,0,1,134.22,28Zm11.39-10.33.48-2.37s.25-.85.77-2.55a25.88,25.88,0,0,1,1.32-3.69,8.82,8.82,0,0,1,1.11-1.8,1.51,1.51,0,0,1,1-.67c.09,0,.14.12.16.37s0,.53,0,.87a17.45,17.45,0,0,1-.73,3.46c-.39,1.25-.85,2.49-1.37,3.74s-1.09,2.45-1.68,3.63-1.15,2.24-1.68,3.18A29.8,29.8,0,0,1,145.61,17.67Zm12,12.5a5.3,5.3,0,0,1-.46.6,5,5,0,0,1-.53.51,2.83,2.83,0,0,1-.59.36,1.41,1.41,0,0,1-.62.15,3.08,3.08,0,0,1-1-.14,1.41,1.41,0,0,1-.59-.36,1.12,1.12,0,0,1-.29-.49,1.75,1.75,0,0,1-.08-.55,7.09,7.09,0,0,1,.31-2c.21-.73.52-1.6.92-2.61a7.31,7.31,0,0,1,1.51-2.45,7.54,7.54,0,0,1,2-1.49,1.62,1.62,0,0,1,0,.35c0,.25,0,.57,0,1s0,.81,0,1.28,0,1.08,0,1.81,0,1.29.06,1.64a4.94,4.94,0,0,0,.09.79A10.23,10.23,0,0,1,157.63,30.17Zm4.88-7.5v-.94c0-.33,0-.72,0-1.16s0-.94.07-1.48.07-1.09.12-1.67c0-.28.07-.76.13-1.44s.14-1.43.25-2.27a20.61,20.61,0,0,1,.48-2.57c.22-.87.42-1.69.61-2.43a6.27,6.27,0,0,1,.74-1.83,1.3,1.3,0,0,1,1-.71.53.53,0,0,1,.48.37,3.35,3.35,0,0,1,.17,1.31c0,.48,0,1.13-.11,2a16.83,16.83,0,0,1-.31,2c-.15.69-.34,1.38-.56,2.08L165,16c-.22.71-.45,1.4-.68,2C163.76,19.57,163.16,21.11,162.51,22.67ZM173,26.47a5.37,5.37,0,0,1,.33-1.36c.19-.54.36-1,.51-1.37a3.69,3.69,0,0,1,.58-1,2.65,2.65,0,0,1,2.18-1,.84.84,0,0,1,.71.5,2.4,2.4,0,0,1,.29,1.26,2.56,2.56,0,0,1-.61,1.39,6.49,6.49,0,0,1-1.26,1.33,6.17,6.17,0,0,1-1.38.81,3.43,3.43,0,0,1-1.38.32Q172.94,27,173,26.47Z"/></svg>